<?xml version="1.0" encoding="UTF-8" standalone="no"?>
<!-- Generated by IcoMoon.io -->

<svg
   xmlns:dc="http://purl.org/dc/elements/1.1/"
   xmlns:cc="http://creativecommons.org/ns#"
   xmlns:rdf="http://www.w3.org/1999/02/22-rdf-syntax-ns#"
   xmlns:svg="http://www.w3.org/2000/svg"
   xmlns="http://www.w3.org/2000/svg"
   xmlns:sodipodi="http://sodipodi.sourceforge.net/DTD/sodipodi-0.dtd"
   xmlns:inkscape="http://www.inkscape.org/namespaces/inkscape"
   version="1.1"
   width="32"
   height="32"
   viewBox="0 0 32 32"
   id="svg2"
   inkscape:version="0.91 r13725"
   sodipodi:docname="contract1.svg">
  <metadata
     id="metadata17">
    <rdf:RDF>
      <cc:Work
         rdf:about="">
        <dc:format>image/svg+xml</dc:format>
        <dc:type
           rdf:resource="http://purl.org/dc/dcmitype/StillImage" />
        <dc:title></dc:title>
      </cc:Work>
    </rdf:RDF>
  </metadata>
  <defs
     id="defs15" />
  <sodipodi:namedview
     pagecolor="#ffffff"
     bordercolor="#666666"
     borderopacity="1"
     objecttolerance="10"
     gridtolerance="10"
     guidetolerance="10"
     inkscape:pageopacity="0"
     inkscape:pageshadow="2"
     inkscape:window-width="1280"
     inkscape:window-height="657"
     id="namedview13"
     showgrid="false"
     inkscape:zoom="7.375"
     inkscape:cx="-0.88135593"
     inkscape:cy="16"
     inkscape:window-x="-8"
     inkscape:window-y="-8"
     inkscape:window-maximized="1"
     inkscape:current-layer="svg2" />
  <g
     id="icomoon-ignore" />
  <path
     d="m 11.547,4.616 1.066,0 0,7.997 -7.997,0 0,-1.066 6.177,0 -7.588,-7.588 0.754,-0.754 7.588,7.588 z"
     id="path5"
     inkscape:connector-curvature="0"
     style="fill:#000000" />
  <path
     d="m 27.384,12.613 0,-1.066 -6.177,0 7.588,-7.588 -0.754,-0.754 -7.588,7.588 0,-6.177 -1.066,0 0,7.997 z"
     id="path7"
     inkscape:connector-curvature="0"
     style="fill:#000000" />
  <path
     d="m 3.959,28.795 7.588,-7.588 0,6.177 1.066,0 0,-7.997 -7.997,0 0,1.066 6.177,0 -7.588,7.588 z"
     id="path9"
     inkscape:connector-curvature="0"
     style="fill:#000000" />
  <path
     d="m 20.453,21.207 7.588,7.588 0.754,-0.754 -7.588,-7.588 6.177,0 0,-1.066 -7.997,0 0,7.997 1.066,0 z"
     id="path11"
     inkscape:connector-curvature="0"
     style="fill:#000000" />
</svg>
