<?xml version="1.0" encoding="UTF-8" standalone="no"?>
<!-- Generated by IcoMoon.io -->

<svg
   xmlns:dc="http://purl.org/dc/elements/1.1/"
   xmlns:cc="http://creativecommons.org/ns#"
   xmlns:rdf="http://www.w3.org/1999/02/22-rdf-syntax-ns#"
   xmlns:svg="http://www.w3.org/2000/svg"
   xmlns="http://www.w3.org/2000/svg"
   xmlns:sodipodi="http://sodipodi.sourceforge.net/DTD/sodipodi-0.dtd"
   xmlns:inkscape="http://www.inkscape.org/namespaces/inkscape"
   version="1.1"
   width="32"
   height="32"
   viewBox="0 0 32 32"
   id="svg2"
   inkscape:version="0.91 r13725"
   sodipodi:docname="more1.svg">
  <metadata
     id="metadata15">
    <rdf:RDF>
      <cc:Work
         rdf:about="">
        <dc:format>image/svg+xml</dc:format>
        <dc:type
           rdf:resource="http://purl.org/dc/dcmitype/StillImage" />
        <dc:title></dc:title>
      </cc:Work>
    </rdf:RDF>
  </metadata>
  <defs
     id="defs13" />
  <sodipodi:namedview
     pagecolor="#ffffff"
     bordercolor="#666666"
     borderopacity="1"
     objecttolerance="10"
     gridtolerance="10"
     guidetolerance="10"
     inkscape:pageopacity="0"
     inkscape:pageshadow="2"
     inkscape:window-width="1280"
     inkscape:window-height="657"
     id="namedview11"
     showgrid="false"
     inkscape:zoom="7.375"
     inkscape:cx="1.2227596"
     inkscape:cy="12.718353"
     inkscape:window-x="-8"
     inkscape:window-y="-8"
     inkscape:window-maximized="1"
     inkscape:current-layer="svg2" />
  <g
     id="icomoon-ignore" />
  <path
     d="m 19.199,28.795 c 0,-1.767 -1.432,-3.199 -3.199,-3.199 -1.767,0 -3.199,1.432 -3.199,3.199 0,1.766 1.432,3.199 3.199,3.199 1.767,0 3.199,-1.433 3.199,-3.199 z m -5.332,0 c 0,-1.177 0.956,-2.132 2.133,-2.132 1.177,0 2.133,0.956 2.133,2.132 0,1.176 -0.956,2.133 -2.133,2.133 -1.177,0 -2.133,-0.957 -2.133,-2.132 z"
     id="path5"
     inkscape:connector-curvature="0"
     style="fill:#000000"
     inkscape:export-xdpi="90"
     inkscape:export-ydpi="90" />
  <path
     d="m 19.199,3.205 c 0,-1.767 -1.432,-3.199 -3.199,-3.199 -1.767,0 -3.199,1.432 -3.199,3.199 0,1.766 1.432,3.199 3.199,3.199 1.767,0 3.199,-1.433 3.199,-3.199 z m -5.332,0 c 0,-1.176 0.956,-2.133 2.133,-2.133 1.177,0 2.133,0.957 2.133,2.133 0,1.176 -0.956,2.133 -2.133,2.133 -1.177,0 -2.133,-0.957 -2.133,-2.133 z"
     id="path7"
     inkscape:connector-curvature="0"
     style="fill:#000000"
     inkscape:export-xdpi="90"
     inkscape:export-ydpi="90" />
  <path
     d="m 19.199,16 c 0,-1.767 -1.432,-3.199 -3.199,-3.199 -1.767,0 -3.199,1.432 -3.199,3.199 0,1.766 1.432,3.199 3.199,3.199 1.767,0 3.199,-1.433 3.199,-3.199 z m -5.332,0 c 0,-1.176 0.956,-2.133 2.133,-2.133 1.177,0 2.133,0.957 2.133,2.133 0,1.176 -0.956,2.133 -2.133,2.133 -1.177,0 -2.133,-0.957 -2.133,-2.133 z"
     id="path9"
     inkscape:connector-curvature="0"
     style="fill:#000000"
     inkscape:export-xdpi="90"
     inkscape:export-ydpi="90" />
</svg>
